# Blender 3.3.1
# www.blender.org
mtllib head.mtl
o Head
v -0.838587 1.194828 0.838587
v -0.532485 0.375882 0.532485
v -0.838587 1.194828 -0.838587
v -0.532485 0.375882 -0.532485
v 0.838587 1.194828 0.838587
v 0.532485 0.375882 0.532485
v 0.838587 1.194828 -0.838587
v 0.532485 0.375882 -0.532485
v -0.000000 1.784144 0.000000
vn -0.0000 0.8182 0.5750
vn -0.0000 -0.3501 -0.9367
vn 0.9367 -0.3501 -0.0000
vn -0.0000 -1.0000 -0.0000
vn -0.9367 -0.3501 -0.0000
vn -0.0000 -0.3501 0.9367
vn -0.0000 0.8182 -0.5750
vn 0.5750 0.8182 -0.0000
vn -0.5750 0.8182 -0.0000
vt 0.625000 0.500000
vt 0.375000 0.500000
vt 0.625000 0.750000
vt 0.375000 0.750000
vt 0.625000 0.250000
vt 0.125000 0.500000
vt 0.375000 0.250000
vt 0.625000 1.000000
vt 0.625000 0.000000
vt 0.375000 0.000000
vt 0.375000 1.000000
vt 0.125000 0.750000
vt 0.625000 0.500000
vt 0.625000 1.000000
vt 0.625000 0.250000
vt 0.625000 0.750000
s 0
usemtl Material
f 1/1/1 5/5/1 9/13/1
f 3/3/2 8/11/2 4/4/2
f 7/9/3 6/7/3 8/10/3
f 2/2/4 8/12/4 6/6/4
f 1/1/5 4/4/5 2/2/5
f 5/5/6 2/2/6 6/7/6
f 7/8/7 3/3/7 9/14/7
f 5/5/8 7/9/8 9/15/8
f 3/3/9 1/1/9 9/16/9
f 3/3/2 7/8/2 8/11/2
f 7/9/3 5/5/3 6/7/3
f 2/2/4 4/4/4 8/12/4
f 1/1/5 3/3/5 4/4/5
f 5/5/6 1/1/6 2/2/6
