# Blender 3.3.1
# www.blender.org
mtllib arm_l.mtl
o Arm_L
v -2.035573 -1.308864 0.518232
v 0.046744 0.355530 0.287201
v -2.035573 -1.308864 -0.518231
v 0.046744 0.355530 -0.287201
v -1.272269 -2.010022 0.518232
v -0.050785 -0.337573 0.287201
v -1.272269 -2.010022 -0.518232
v -0.050785 -0.337573 -0.287201
vn -0.6244 0.7811 -0.0000
vn 0.0755 0.0822 -0.9938
vn 0.8075 -0.5898 -0.0000
vn 0.0755 0.0822 0.9938
vn -0.6765 -0.7365 -0.0000
vn 0.9902 -0.1393 -0.0000
vn 0.1240 -0.0175 -0.9921
vn 0.1240 -0.0175 0.9921
vt 0.375000 0.000000
vt 0.375000 1.000000
vt 0.125000 0.750000
vt 0.625000 0.000000
vt 0.625000 1.000000
vt 0.875000 0.750000
vt 0.125000 0.500000
vt 0.375000 0.250000
vt 0.625000 0.250000
vt 0.875000 0.500000
vt 0.375000 0.750000
vt 0.625000 0.750000
vt 0.375000 0.500000
vt 0.625000 0.500000
s 0
usemtl マテリアル
f 2/4/1 3/8/1 1/1/1
f 3/8/2 8/14/2 7/13/2
f 8/14/3 5/11/3 7/13/3
f 6/12/4 1/2/4 5/11/4
f 7/13/5 1/3/5 3/7/5
f 8/14/6 2/6/6 6/12/6
f 2/4/1 4/9/1 3/8/1
f 3/8/7 4/9/7 8/14/7
f 8/14/3 6/12/3 5/11/3
f 6/12/8 2/5/8 1/2/8
f 7/13/5 5/11/5 1/3/5
f 8/14/6 4/10/6 2/6/6
