# Blender 3.3.0
# www.blender.org
mtllib body.mtl
o Body
v 0.896638 0.702657 -0.896638
v 0.518232 2.788507 -0.518232
v 0.896638 0.702657 0.896638
v 0.518232 2.788507 0.518232
v -0.896638 0.702657 -0.896638
v -0.518232 2.788507 -0.518232
v -0.896638 0.702657 0.896638
v -0.518232 2.788507 0.518232
v 0.000000 0.265974 0.000000
vn 0.9839 0.1785 -0.0000
vn -0.0000 0.1785 0.9839
vn -0.9839 0.1785 -0.0000
vn -0.0000 0.1785 -0.9839
vn -0.4379 -0.8990 -0.0000
vn -0.0000 1.0000 -0.0000
vn -0.0000 -0.8990 -0.4379
vn -0.0000 -0.8990 0.4379
vn 0.4379 -0.8990 -0.0000
vt 0.375000 1.000000
vt 0.375000 0.000000
vt 0.625000 0.000000
vt 0.625000 1.000000
vt 0.875000 0.750000
vt 0.375000 0.250000
vt 0.625000 0.250000
vt 0.875000 0.500000
vt 0.375000 0.750000
vt 0.625000 0.750000
vt 0.375000 0.500000
vt 0.625000 0.500000
vt 0.375000 0.500000
vt 0.375000 0.750000
vt 0.375000 0.250000
vt 0.375000 0.000000
s 0
usemtl マテリアル.002
f 1/2/1 2/3/1 4/7/1 3/6/1
f 3/6/2 4/7/2 8/12/2 7/11/2
f 7/11/3 8/12/3 6/10/3 5/9/3
f 5/9/4 6/10/4 2/4/4 1/1/4
f 7/11/5 5/9/5 9/13/5
f 8/12/6 4/8/6 2/5/6 6/10/6
f 5/9/7 1/1/7 9/14/7
f 3/6/8 7/11/8 9/15/8
f 1/2/9 3/6/9 9/16/9
